<svg xmlns="http://www.w3.org/2000/svg" width="292.774" height="41.108" viewBox="0 0 292.774 41.108"><path d="M18.098.036c.817.064 2.107.477 3.071 1.328 1.03.99 1.266 2.513.908 3.888-.325 1.229-.68 1.872-1.936 2.713-1.269.861-2.8.792-2.8.792v5.314l2.592 2.095-2.592 2.095v7.246s2.597-1.489 4.204-4.812c0 0 .068-.183.216-.531.146.896.062 2.705-.95 5.012-.755 1.754-2.136 3.436-3.875 4.397-3.073 1.699-5.378 1.86-7.845 1.347-2.891-.6-5.524-2.218-7.319-5.05C.519 23.868-.049 21.546.004 19.041.106 14.14 3.752 9.913 7.968 8.324c.512-.192.719-.319 1.445-.378-.335.229-.721.517-1.198.831-1.357.901-2.523 2.672-3.019 4.034l8.177-3.64v11.438l-6.589 3.292c.745 1.057 3.029 2.624 4.984 2.845 3.317.368 5.266-1.08 5.266-1.08v-7.405l-2.572-2.095 2.572-2.092V8.757c-1.401-.166-3.106-.635-4.104-.878-1.47-.364-6.359-1.735-7.125-1.852-.769-.11-1.717-.076-2.29.435-.574.52-.93 1.433-.685 2.253.137.459.458.73.701.991 0 0-.28-.017-.798-.321-.914-.559-1.621-1.649-1.707-2.983-.105-1.744.617-3.325 2.058-4.39C4.34 1.208 5.76.689 7.414.921c2.403.347 5.642 1.713 8.531 2.403 1.115.271 1.98.357 2.767-.098.366-.259 1.01-.94.482-1.853-.611-1.054-1.79-1.027-2.79-1.221.863-.176 1.054-.176 1.694-.116zM8.374 22.77V11.73l-3.318 1.484s-.85 1.892-.702 4.644c.118 2.15 1.32 4.714 2.241 5.792l1.779-.88zM49.816 11.187s-2.499 1.529-4.19 2.526c-1.682.996-3.942 2.106-3.942 2.106v10.537l-1.508 1.202.202.243 1.47-1.191 4.607 4.163 8.01-6.343-.193-.231-4.424 3.477-3.642-3.408v-1.271l7.314-5.373-3.704-6.437zm.106 8.705l-3.717 2.718v-9.045l3.717 6.327zM28.826 34.739c1.049.258 2.905.399 5.137-.719 2.478-1.238 3.726-3.869 3.707-6.569l.108-3.82v-8.349l1.582-1.21-.185-.236-1.559 1.183-3.594-4.012-4.613 3.963V1.511l-5.76 4.453c.25.168 1.069.314 1.097 1.467v18.857l-2.449 1.808.167.252 1.185-.877 3.282 3.054 5.161-4.111-.18-.24-1.214.964-1.288-1.271.013-10.51 1.504-1.283 2.244 2.794s-.005 6.8.006 9.062c-.024 2.402-.028 5.405-1.29 6.86-1.269 1.46-1.777 1.564-3.061 1.949zM64.686 33.791c-2.063-.245-2.935-1.484-2.908-2.474.017-.642.59-1.875 1.844-2.049 1.251-.16 2.535.422 3.619 1.69l4.766-5.271-.228-.207-1.28 1.435c-1.302-1.478-3.147-2.408-4.982-2.68V8.178l12.382 22.564s.118.253.629.253c.437.013.332-.355.332-.355l-.003-22.702c1.009-.038 2.541-.597 3.288-1.357 2.386-2.452 1.413-5.124 1.148-5.386-.144 1.175-1.036 2.345-2.538 2.348-1.971.009-3.173-1.44-3.173-1.44l-4.759 5.423.227.21 1.361-1.555c1.671 1.535 2.889 1.677 4.146 1.757v13.177l-9.19-16.693c-.833-1.375-2.092-2.591-4.08-2.604-2.286-.008-3.917 1.999-4.115 3.722-.221 1.966.03 2.413.03 2.413s.332-2.183 1.68-2.154c1.209.014 1.841 1.127 2.33 1.965v4.833c-1.255.094-4.5.229-4.706 3.614-.011 1.259.772 2.579 1.454 3.024.878.581 1.563.567 1.563.567s-1.05-.565-.738-1.672c.284-.99 2.352-1.147 2.426-.735v6.818c-.999-.012-4.179.103-5.611 2.832-.869 1.641-.815 3.486.108 4.79.754 1.06 2.306 2.415 4.978 1.956zM90.845 11.187s-2.508 1.529-4.194 2.526c-1.69.996-3.945 2.106-3.945 2.106v10.537l-1.505 1.202.197.243 1.474-1.191 4.604 4.163 8.015-6.343-.19-.231-4.429 3.477-3.636-3.408v-1.271l7.31-5.373-3.701-6.437zm.104 8.705l-3.713 2.718v-9.045l3.713 6.327zM102.039 30.855l-3.925-3.265-1.727 1.251-.171-.241 1.75-1.28v-9.126c.086-3.756-3.439-2.822-3.248-6.812.085-1.751 1.779-3.078 2.639-3.508.91-.467 1.906-.467 1.906-.467s-1.613 1.005-1.221 2.451c.601 2.229 4.41 2.424 4.479 5.389v10.355l2.816 2.251.742-.579v-11.21l-1.519-1.5 3.905-3.448 3.568 3.159-1.362 1.468v9.931l3.338 2.752.595-.37V16.104l-1.524-1.425 3.92-3.577 3.655 3.017 1.464-1.286.195.225-3.29 2.888v9.737l-8.412 5.195-4.308-3.407-4.265 3.384zM274.147 11.187s-2.506 1.529-4.188 2.526c-1.684.996-3.945 2.106-3.945 2.106v10.537l-1.512 1.202.201.243 1.475-1.191 4.605 4.163 8.014-6.343-.191-.231-4.426 3.477-3.643-3.408v-1.271l7.314-5.373-3.704-6.437zm.11 8.705l-3.719 2.718v-9.045l3.719 6.327zM236.542 15.601l.197.224 1.508-1.292 2.234 2.532v8.704l-1.076.991 3.485 3.949 3.578-3.531-1.471-1.526V15.121l.887-.712 2.484 2.893v8.679l-.931.93 3.287 3.701 3.505-3.52-1.287-1.354-.033-10.576.949-.764 2.58 2.841v8.633l-.847.851 3.631 3.953 4.869-4.499-.207-.224-1.184 1.092-1.814-2.015v-9.856l1.75-1.325-.184-.239-1.75 1.327-3.32-3.716-4.735 3.748-3.32-3.608-4.572 3.571-3.352-3.56z"/><path d="M226.624 15.331l.201.222 1.274-1.099 2 2.361v9.953l-1.411 1.229.198.228 1.474-1.261 3.219 3.712 4.645-4.151-.2-.226-1.367 1.204-1.924-2.213v-9.734l1.625-1.405-.199-.229-1.541 1.325-3.387-3.943zM227.972 7.089l3.496-3.205 2.844 3.153-3.518 3.192z"/><path d="M223.259.036c.824.064 2.107.477 3.076 1.328 1.031.99 1.268 2.513.902 3.888-.316 1.229-.68 1.872-1.932 2.713-1.27.861-2.799.792-2.799.792v5.314l2.594 2.095-2.594 2.095v7.246s2.598-1.489 4.201-4.812c0 0 .074-.183.219-.531.139.896.064 2.705-.945 5.012-.762 1.754-2.145 3.436-3.879 4.397-3.074 1.699-5.381 1.86-7.85 1.347-2.895-.6-5.523-2.218-7.314-5.05-1.26-2.002-1.822-4.324-1.773-6.829.104-4.901 3.756-9.128 7.973-10.717.506-.192.717-.319 1.441-.377-.338.229-.715.517-1.201.831-1.354.901-2.52 2.672-3.012 4.034l8.176-3.64V20.61l-6.596 3.292c.75 1.057 3.031 2.624 4.984 2.845 3.324.368 5.277-1.08 5.277-1.08v-7.405l-2.576-2.095 2.576-2.092V8.757c-1.404-.166-3.111-.635-4.111-.878-1.469-.364-6.355-1.735-7.123-1.852-.773-.11-1.719-.076-2.291.435-.576.52-.928 1.433-.684 2.253.137.459.461.73.691.991 0 0-.277-.017-.783-.321-.928-.559-1.639-1.649-1.715-2.983-.111-1.744.613-3.325 2.057-4.39 1.256-.804 2.678-1.323 4.33-1.091 2.404.347 5.641 1.713 8.529 2.403 1.121.271 1.986.357 2.766-.098.371-.259 1.01-.94.486-1.853-.615-1.054-1.789-1.027-2.787-1.221.857-.176 1.048-.176 1.687-.116zM213.54 22.77V11.73l-3.322 1.484s-.846 1.892-.699 4.644c.115 2.15 1.32 4.714 2.24 5.792l1.781-.88zM283.063 32.141c-.539.156-2.832-.409-3.391-2.802-.541-2.317 1.084-3.9 3.52-6.386l-2.885-2.633v-5.035s2.123-1.062 3.781-2.095c1.654-1.044 3.361-2.164 3.361-2.164s1.242 1.557 2.637 1.441c2.199-.193 2.094-1.923 2.029-2.335.377.671 1.373 2.658-2.479 7.103l3.137 2.53v6.536s-3.637 1.897-7.088 4.421c0 0-1.928-2.415-3.598-1.26-1.133.78-.609 2.094.976 2.679zm-2.714-5.049s1.654-2.734 4.502-2.142c2.732.557 3.678 3.446 3.678 3.446v-6.641l-1.9-1.654c-2.093 2.105-5.814 5.149-6.28 6.991zm4.22-13.861v5.223l1.748 1.526s3.781-3.033 5.154-5.837c0 0-1.703 2.309-3.984 1.599-1.92-.588-2.918-2.511-2.918-2.511zM165.269 15.537l1.416-1.302.201.228-1.377 1.279v10.395s-2.609 1.396-4.434 2.416a160.612 160.612 0 0 0-3.779 2.24l-4.791-4.047-1.266 1.116-.211-.238 1.338-1.158V15.285h.014s2.262-1.02 4.176-2.095c1.705-.961 3.615-2.084 3.615-2.084l5.098 4.431zm-8.354 9.157l4.053 3.681V17.14l-4.053-3.743v11.297zM174.696 14.489l3.053-3.117s.418.366.814.563c.217.106 1.146.578 1.99.12.461-.254.52-.322 1.025-.795.102 2.425-1.059 4.123-2.51 4.825-.594.292-2.322.847-4.139-1.369v11.195l1.928 1.697 1.609-1.329.184.231-5.041 4.211-3.832-3.499-1.377 1.307-.232-.236 2.102-1.901.016-9.653-1.611-2.137-1.383 1.217-.201-.218 4.881-4.396 2.724 3.284zM187.552 19.154l5.631-8.199s.742.877 2.039 1.214c1.754.461 3.295-1.238 3.295-1.238-.295 2.188-1.41 4.685-3.701 5.061-2.023.335-3.902-1.236-3.902-1.236l-.361.564 7.816 11.81 1.561-1.367.213.225-5.373 4.688-7.218-11.522z"/><path d="M182.897 8.205c0-1.768-.725-2.863-1.674-2.791l6.143-4.305v24.428l1.623 1.711 1.225-1.067.201.232-4.951 4.324-3.359-3.154-1.332 1.183-.219-.231 2.344-2.041V8.205zM131.528 7.798c0-1.641-.67-2.572-1.757-2.591-1.559-.032-1.934 2.17-1.934 2.17s-.287-1.697 1.14-3.242c.797-.866 2.288-2.067 4.615-1.509 2.409.583 3.098 2.447 3.098 4.1v22.73s.907.111 1.533.24c.714.16 1.403.353 1.403.353V2.639h.296v3.697l4.941-3.973 3.61 3.212 1.688-1.464.191.233-1.762 1.517v21.131c-.088 1.389-.308 2.792-1.608 3.589-2.904 1.728-6.411-.262-9.531-.715-2.321-.344-5.955-.782-6.857 1.345-.31.699-.286 1.782.769 2.476 2.103 1.416 11.49-2.362 14.719-.859 2.932 1.369 2.92 3.532 2.468 5.006-.765 2.792-4.281 3.275-4.281 3.275s1.72-.993 1.229-2.645c-.249-.843-.819-1.074-2.661-.868-4.024.455-8.832 2.405-12.07 1.053-1.661-.696-2.84-2.779-2.727-4.82.081-2.947 3.486-4.11 3.486-4.11V18.828c-.101-.433-1.916-.315-2.313.481-.6 1.207.749 1.773.749 1.773s-1.114.155-2.059-.93c-.458-.526-1.413-2.38-.172-4.094 1.024-1.411 2.246-1.66 3.795-1.835V7.798zm8.395 22.325s1.441.385 2.484-.474c1.162-.958 1.038-2.298 1.038-2.298v-8.467s-.672-.858-1.744-.858c-1.065 0-1.778.884-1.778.884v11.213zm3.522-22.218l-2.374-2.087-1.148.908v7.845s.713.893 1.778.893c1.072 0 1.744-.859 1.744-.859v-6.7zm0 7.167s-.675.771-1.75.771c-1.063 0-1.772-.771-1.772-.771v3.34s.708-.778 1.772-.778c1.075 0 1.75.739 1.75.739v-3.301z"/></svg>